# xmcd
#
# Track frame offsets:
#	150
#	21355
#	44587
#	78522
#	90640
#	105500
#	121495
#	153820
#	174895
#	204357
#	223395
#	243207
#	258780
#	283957
#	306887
#
# Disc length: 4379 seconds
#
# Revision: 0
# Processed by: cddbd v1.5.2PL0 Copyright (c) Steve Scherf et al.
# Submitted via: Jack! The Knife
#
DISCID=ca11190f
DTITLE=Judas Priest - Metal Gods (Vol.2)
DYEAR=2006
DGENRE=Heavy Metal
TTITLE0=Screaming For Vengeance
TTITLE1=You've Got Another Thin' Comin'
TTITLE2=Sinner
TTITLE3=The Ripper
TTITLE4=The Green Manalishi (With the two-pronged crown)
TTITLE5=Diamonds and Rust
TTITLE6=Victim Of Changes
TTITLE7=Tyrant
TTITLE8=Out In The Cold
TTITLE9=Hard As Iron
TTITLE10=Freewheel Burning
TTITLE11=JawBreaker
TTITLE12=Rock Hard, Ride Free
TTITLE13=The Sentinel
TTITLE14=Love Bites
EXTD=
EXTT0=
EXTT1=
EXTT2=
EXTT3=
EXTT4=
EXTT5=
EXTT6=
EXTT7=
EXTT8=
EXTT9=
EXTT10=
EXTT11=
EXTT12=
EXTT13=
EXTT14=
PLAYORDER=
